<svg width="36" height="36" xmlns="http://www.w3.org/2000/svg">
 <title/>
 <desc/>

 <g>
  <title>background</title>
  <rect fill="none" id="canvas_background" height="38" width="38" y="-1" x="-1"/>
 </g>
 <g>
  <title>Layer 1</title>
  <path stroke="null" fill="#ffffff" id="Shape" d="m32.007244,0l-28.006339,0c-2.200498,0 -4.000906,1.800407 -4.000906,4.000906l0,28.006339c0,2.200498 1.800407,4.000906 4.000906,4.000906l28.006339,0c2.200498,0 4.000906,-1.800407 4.000906,-4.000906l0,-28.006339c0,-2.200498 -1.800407,-4.000906 -4.000906,-4.000906l0,0zm-4.000906,12.002717l-20.004528,0l0,-4.000906l20.004528,0l0,4.000906l0,0zm0,8.001811l-20.004528,0l0,-4.000906l20.004528,0l0,4.000906l0,0zm-6.001358,8.001811l-14.003169,0l0,-4.000906l14.003169,0l0,4.000906l0,0z"/>
 </g>
</svg>