<?xml version="1.0" encoding="utf-8"?>
<!-- Generator: Adobe Illustrator 16.0.3, SVG Export Plug-In . SVG Version: 6.00 Build 0)  -->
<!DOCTYPE svg PUBLIC "-//W3C//DTD SVG 1.1//EN" "http://www.w3.org/Graphics/SVG/1.1/DTD/svg11.dtd">
<svg version="1.1" id="Icons_Road" xmlns="http://www.w3.org/2000/svg" xmlns:xlink="http://www.w3.org/1999/xlink" x="0px" y="0px"
	 width="150px" height="175px" viewBox="212.5 162.5 150 175" enable-background="new 212.5 162.5 150 175" xml:space="preserve">
<path fill="#FFFFFF" d="M258.739,240.123h6.045l-14.548-39.14l-14.586,39.14h6.047l-9.825,23.253h14.585v10.407h7.558v-10.407
	h14.548L258.739,240.123L258.739,240.123z"/>
<path fill="#FFFFFF" d="M350.574,211.779h4.263l-10.259-27.597l-10.283,27.597h4.263l-6.928,16.397h10.285v7.336h5.328v-7.336H357.5
	L350.574,211.779L350.574,211.779z"/>
<path fill="#FFFFFF" d="M299.61,224.538c6.906,5.298,25.38,15.451,28.508,17.975c4.375,3.528,18.587,11.47,7.652,32.96
	c-10.934,21.488-21.061,37.323-27.765,48.71H217.5c22.503-20.935,57.147-38.209,72.122-50.45
	c14.975-12.242,15.786-21.49,8.59-31.683c-6.589-9.333-12.499-11.963-14.921-17.584c-4.31-10.001,11.258-14.235,16.568-14.149
	c0.644,0,6.588,0,6.588,0S292.702,219.242,299.61,224.538z"/>
<ellipse id="svg_3" fill="#FFFFFF" cx="346.596" cy="284.734" rx="10.354" ry="11.733"/>
<line id="svg_5" fill="none" stroke="#FFFFFF" stroke-width="6" stroke-miterlimit="10" x1="346.389" y1="318.386" x2="346.389" y2="297.053"/>
<ellipse id="svg_11" fill="none" stroke="#1D1D1B" stroke-width="2" cx="350.837" cy="284.404" rx="2.077" ry="3.777"/>
<ellipse id="svg_14" fill="none" stroke="#1D1D1B" stroke-width="2" cx="345.154" cy="284.404" rx="2.076" ry="3.777"/>
<line id="svg_15" fill="none" stroke="#1D1D1B" stroke-width="2" x1="340.227" y1="280.458" x2="340.227" y2="288.43"/>
</svg>
