<?xml version="1.0" encoding="utf-8"?>
<!-- Generator: Adobe Illustrator 16.0.3, SVG Export Plug-In . SVG Version: 6.00 Build 0)  -->
<!DOCTYPE svg PUBLIC "-//W3C//DTD SVG 1.1//EN" "http://www.w3.org/Graphics/SVG/1.1/DTD/svg11.dtd">
<svg version="1.1" id="Icons_Road" xmlns="http://www.w3.org/2000/svg" xmlns:xlink="http://www.w3.org/1999/xlink" x="0px" y="0px"
	 width="575px" height="500px" viewBox="0 0 575 500" enable-background="new 0 0 575 500" xml:space="preserve">
<path fill="#FFFFFF" d="M167.548,198.165h23.396L134.64,64.496L78.189,198.167h23.403L63.565,277.58h56.451v35.541h29.249V277.58
	h56.304L167.548,198.165L167.548,198.165z"/>
<path fill="#FFFFFF" d="M522.974,101.368h16.498L499.769,7.121l-39.799,94.248h16.497l-26.813,55.998h39.806v25.055h20.623v-25.055
	h39.697L522.974,101.368L522.974,101.368z"/>
<path fill="#FFFFFF" d="M325.73,144.941c26.729,18.093,98.227,52.767,110.333,61.386c16.932,12.049,71.936,39.174,29.618,112.563
	S384.17,446.357,358.225,485.244H7.943c87.095-71.494,221.174-130.489,279.13-172.297c57.955-41.808,61.098-73.389,33.245-108.202
	c-25.5-31.875-48.374-40.857-57.745-60.054c-16.683-34.157,43.567-48.615,64.12-48.322c2.493,0,25.5,0,25.5,0
	S298.994,126.855,325.73,144.941z"/>
<circle id="svg_3" fill="#FFFFFF" cx="507.577" cy="350.52" r="40.071"/>
<line id="svg_5" fill="none" stroke="#FFFFFF" stroke-width="6" stroke-miterlimit="10" x1="506.776" y1="465.448" x2="506.776" y2="392.591"/>
<ellipse id="svg_11" fill="none" stroke="#1D1D1B" stroke-width="4" cx="523.993" cy="349.393" rx="8.037" ry="12.9"/>
<ellipse id="svg_14" fill="none" stroke="#1D1D1B" stroke-width="4" cx="502" cy="349.393" rx="8.033" ry="12.9"/>
<line id="svg_15" fill="none" stroke="#1D1D1B" stroke-width="4" x1="482.927" y1="335.918" x2="482.927" y2="363.14"/>
</svg>
