<?xml version="1.0" encoding="utf-8"?>
<!-- Generator: Adobe Illustrator 16.0.3, SVG Export Plug-In . SVG Version: 6.00 Build 0)  -->
<!DOCTYPE svg PUBLIC "-//W3C//DTD SVG 1.1//EN" "http://www.w3.org/Graphics/SVG/1.1/DTD/svg11.dtd">
<svg version="1.1" id="Layer_1" xmlns="http://www.w3.org/2000/svg" xmlns:xlink="http://www.w3.org/1999/xlink" x="0px" y="0px"
	 width="575px" height="500px" viewBox="0 0 575 500" enable-background="new 0 0 575 500" xml:space="preserve">
<path fill="#FFFFFF" d="M171.196,204.389h23.396L138.288,70.718L81.837,204.389h23.403l-38.027,79.413h56.451v35.541h29.249v-35.541
	h56.304L171.196,204.389L171.196,204.389z"/>
<path fill="#FFFFFF" d="M329.378,151.164c26.729,18.092,98.227,52.766,110.333,61.385c16.932,12.049,71.936,39.174,29.618,112.563
	c-42.317,73.39-81.512,127.469-107.457,166.355H11.591c87.095-71.495,221.174-130.49,279.13-172.297
	c57.955-41.808,61.098-73.39,33.245-108.203c-25.5-31.875-48.374-40.856-57.745-60.053c-16.683-34.157,43.567-48.615,64.12-48.322
	c2.493,0,25.5,0,25.5,0S302.642,133.077,329.378,151.164z"/>
<g>
	<path fill="#FFFFFF" d="M499.736,153.76c0,9.147-7.414,16.563-16.563,16.563s-16.563-7.416-16.563-16.563
		c0-9.142,16.563-33.125,16.563-33.125S499.736,144.618,499.736,153.76z"/>
	<path fill="#FFFFFF" d="M535.014,144.296c0,6.533-5.297,11.831-11.83,11.831c-6.534,0-11.831-5.298-11.831-11.831
		c0-6.507,11.831-23.661,11.831-23.661S535.014,137.95,535.014,144.296z"/>
	<path fill="#FFFFFF" d="M454.564,144.296c0.441,6.52-4.486,12.161-11.006,12.602c-6.52,0.439-12.16-4.488-12.602-11.007
		c-0.035-0.53-0.035-1.063,0-1.594c0-6.507,11.776-23.661,11.776-23.661S454.564,137.95,454.564,144.296z"/>
	<path fill="#FFFFFF" d="M563.408,88.692c0.047-12.355-9.931-22.409-22.285-22.457c-1.254-0.005-2.506,0.096-3.743,0.3v-0.322
		c-0.015-15.651-12.716-28.327-28.367-28.313c-3.005,0.003-5.991,0.484-8.846,1.425c-8.963-16.695-29.763-22.964-46.456-14.001
		c-10.918,5.861-17.827,17.153-18.076,29.543c-15.374-3.083-30.337,6.884-33.42,22.26c-3.081,15.375,6.885,30.339,22.26,33.42
		c1.358,0.272,2.733,0.444,4.116,0.516h113.521C554.021,110.435,563.367,100.617,563.408,88.692z"/>
</g>
<circle id="svg_3" fill="#FFFFFF" cx="511.351" cy="363.838" r="40.071"/>
<line id="svg_5" fill="none" stroke="#FFFFFF" stroke-width="6" stroke-miterlimit="10" x1="510.55" y1="478.767" x2="510.55" y2="405.909"/>
<ellipse id="svg_11" fill="none" stroke="#1D1D1B" stroke-width="4" cx="527.767" cy="362.709" rx="8.037" ry="12.9"/>
<ellipse id="svg_14" fill="none" stroke="#1D1D1B" stroke-width="4" cx="505.773" cy="362.709" rx="8.033" ry="12.9"/>
<line id="svg_15" fill="none" stroke="#1D1D1B" stroke-width="4" x1="486.699" y1="349.235" x2="486.699" y2="376.458"/>
</svg>
