<?xml version="1.0" encoding="utf-8"?>
<!-- Generator: Adobe Illustrator 16.0.3, SVG Export Plug-In . SVG Version: 6.00 Build 0)  -->
<!DOCTYPE svg PUBLIC "-//W3C//DTD SVG 1.1//EN" "http://www.w3.org/Graphics/SVG/1.1/DTD/svg11.dtd">
<svg version="1.1" id="Layer_1" xmlns="http://www.w3.org/2000/svg" xmlns:xlink="http://www.w3.org/1999/xlink" x="0px" y="0px"
	 width="575px" height="500px" viewBox="0 0 575 500" enable-background="new 0 0 575 500" xml:space="preserve">
<path fill="#FFFFFF" d="M178.321,200.326h23.396L145.413,66.655L88.962,200.326h23.403l-38.027,79.413h56.451v35.541h29.249v-35.541
	h56.304L178.321,200.326L178.321,200.326z"/>
<path fill="#FFFFFF" d="M336.503,147.102c26.729,18.092,98.227,52.766,110.333,61.385c16.932,12.049,71.936,39.174,29.618,112.563
	c-42.317,73.39-81.512,127.469-107.457,166.355H18.716c87.095-71.495,221.174-130.49,279.13-172.297
	c57.955-41.808,61.098-73.39,33.245-108.203c-25.5-31.875-48.374-40.856-57.745-60.053c-16.683-34.157,43.567-48.615,64.12-48.322
	c2.493,0,25.5,0,25.5,0S309.767,129.015,336.503,147.102z"/>
<g>
	
		<ellipse fill="#FFFFFF" stroke="#FFFFFF" stroke-width="3" stroke-miterlimit="10" cx="483.222" cy="91.777" rx="47.76" ry="45.528"/>
	<line fill="none" stroke="#FFFFFF" stroke-width="3" stroke-miterlimit="10" x1="483.222" y1="12.596" x2="483.222" y2="38.359"/>
	<line fill="none" stroke="#FFFFFF" stroke-width="3" stroke-miterlimit="10" x1="424.49" y1="35.789" x2="443.6" y2="54.005"/>
	<line fill="none" stroke="#FFFFFF" stroke-width="3" stroke-miterlimit="10" x1="400.163" y1="91.777" x2="427.188" y2="91.777"/>
	<line fill="none" stroke="#FFFFFF" stroke-width="3" stroke-miterlimit="10" x1="424.49" y1="147.765" x2="443.603" y2="129.548"/>
	
		<line fill="none" stroke="#FFFFFF" stroke-width="3" stroke-miterlimit="10" x1="483.225" y1="170.955" x2="483.225" y2="145.192"/>
	
		<line fill="none" stroke="#FFFFFF" stroke-width="3" stroke-miterlimit="10" x1="541.955" y1="147.763" x2="522.847" y2="129.546"/>
	<line fill="none" stroke="#FFFFFF" stroke-width="3" stroke-miterlimit="10" x1="566.283" y1="91.775" x2="539.258" y2="91.775"/>
	<line fill="none" stroke="#FFFFFF" stroke-width="3" stroke-miterlimit="10" x1="541.955" y1="35.787" x2="522.845" y2="54.004"/>
</g>
<title>Layer 1</title>
<circle id="svg_3" fill="#FFFFFF" cx="512.914" cy="350.54" r="40.071"/>
<line id="svg_5" fill="none" stroke="#FFFFFF" stroke-width="6" stroke-miterlimit="10" x1="512.113" y1="465.469" x2="512.113" y2="392.611"/>
<ellipse id="svg_11" fill="none" stroke="#1D1D1B" stroke-width="4" cx="529.33" cy="349.413" rx="8.037" ry="12.9"/>
<ellipse id="svg_14" fill="none" stroke="#1D1D1B" stroke-width="4" cx="507.337" cy="349.413" rx="8.033" ry="12.9"/>
<line id="svg_15" fill="none" stroke="#1D1D1B" stroke-width="4" x1="488.263" y1="335.938" x2="488.263" y2="363.16"/>
</svg>
