<?xml version="1.0" encoding="utf-8"?>
<!-- Generator: Adobe Illustrator 16.0.3, SVG Export Plug-In . SVG Version: 6.00 Build 0)  -->
<!DOCTYPE svg PUBLIC "-//W3C//DTD SVG 1.1//EN" "http://www.w3.org/Graphics/SVG/1.1/DTD/svg11.dtd">
<svg version="1.1" id="Layer_1" xmlns="http://www.w3.org/2000/svg" xmlns:xlink="http://www.w3.org/1999/xlink" x="0px" y="0px"
	 width="172.5px" height="150px" viewBox="201.25 175 172.5 150" enable-background="new 201.25 175 172.5 150"
	 xml:space="preserve">
<path fill="#FFFFFF" d="M257.986,243.172h5.944l-14.29-33.914l-14.325,33.914h5.943l-9.654,20.135h14.32v9.023h7.425v-9.023h14.289
	L257.986,243.172L257.986,243.172z"/>
<path fill="#FFFFFF" d="M298.129,229.667c6.771,4.583,24.913,13.384,27.996,15.571c4.284,3.063,18.235,9.936,7.505,28.564
	c-10.736,18.613-20.668,32.347-27.257,42.204H217.5c22.089-18.13,56.109-33.1,70.808-43.716
	c14.714-10.613,15.503-18.62,8.453-27.454c-6.487-8.089-12.287-10.369-14.655-15.235c-4.237-8.671,11.041-12.339,16.265-12.264
	c0.637,0,6.459,0,6.459,0S291.346,225.074,298.129,229.667z"/>
<g>
	<path fill="#FFFFFF" d="M341.346,230.32c0,2.324-1.87,4.203-4.193,4.203c-2.319,0-4.217-1.879-4.217-4.203
		c0-2.321,4.217-8.407,4.217-8.407S341.346,228,341.346,230.32z"/>
	<path fill="#FFFFFF" d="M350.299,227.923c0,1.652-1.335,3.005-3.008,3.005c-1.641,0-2.996-1.353-2.996-3.005
		c0-1.658,2.996-6.01,2.996-6.01S350.299,226.312,350.299,227.923z"/>
	<path fill="#FFFFFF" d="M329.893,227.923c0.102,1.649-1.133,3.081-2.795,3.192c-1.651,0.111-3.078-1.137-3.189-2.784
		c-0.013-0.136-0.013-0.273,0-0.408c0-1.657,2.988-6.009,2.988-6.009S329.893,226.312,329.893,227.923z"/>
	<path fill="#FFFFFF" d="M357.499,213.807c0.026-3.133-2.512-5.678-5.64-5.697c-0.33,0-0.651,0.023-0.947,0.078v-0.082
		c-0.006-3.972-3.231-7.185-7.198-7.185c-0.766,0-1.541,0.133-2.246,0.363c-2.282-4.231-7.564-5.827-11.798-3.548
		c-2.756,1.482-4.531,4.347-4.588,7.492c-3.906-0.788-7.691,1.742-8.482,5.645c-0.767,3.903,1.762,7.701,5.665,8.482
		c0.341,0.069,0.687,0.113,1.025,0.127h28.819C355.128,219.33,357.486,216.843,357.499,213.807z"/>
</g>
<path id="svg_3" fill="#FFFFFF" d="M344.293,273.465c5.626,0,10.174,4.541,10.174,10.167c0,5.608-4.548,10.151-10.174,10.151
	c-5.617,0-10.153-4.543-10.153-10.151C334.14,278.006,338.676,273.465,344.293,273.465z"/>
<line id="svg_5" fill="none" stroke="#FFFFFF" stroke-width="6" stroke-miterlimit="10" x1="344.087" y1="312.79" x2="344.087" y2="294.299"/>
<path id="svg_11" fill="none" stroke="#1D1D1B" stroke-width="2" d="M348.458,280.06c1.136,0,2.044,1.477,2.044,3.27
	c0,1.819-0.908,3.276-2.044,3.276c-1.114,0-2.046-1.457-2.046-3.276C346.412,281.536,347.344,280.06,348.458,280.06z"/>
<path id="svg_14" fill="none" stroke="#1D1D1B" stroke-width="2" d="M342.893,280.06c1.117,0,2.015,1.477,2.015,3.27
	c0,1.819-0.897,3.276-2.015,3.276c-1.143,0-2.042-1.457-2.042-3.276C340.851,281.536,341.75,280.06,342.893,280.06z"/>
<line id="svg_15" fill="none" stroke="#1D1D1B" stroke-width="2" x1="338.051" y1="279.91" x2="338.051" y2="286.82"/>
</svg>
