<?xml version="1.0" encoding="utf-8"?>
<!-- Generator: Adobe Illustrator 16.0.3, SVG Export Plug-In . SVG Version: 6.00 Build 0)  -->
<!DOCTYPE svg PUBLIC "-//W3C//DTD SVG 1.1//EN" "http://www.w3.org/Graphics/SVG/1.1/DTD/svg11.dtd">
<svg version="1.1" id="Layer_1" xmlns="http://www.w3.org/2000/svg" xmlns:xlink="http://www.w3.org/1999/xlink" x="0px" y="0px"
	 width="175px" height="175px" viewBox="200 162.5 175 175" enable-background="new 200 162.5 175 175" xml:space="preserve">
<path fill="#FFFFFF" d="M263.297,237.309h5.995L254.88,203.13l-14.424,34.179h5.993l-9.721,20.279h14.437v9.133h7.463v-9.133h14.412
	L263.297,237.309L263.297,237.309z"/>
<path fill="#FFFFFF" d="M303.768,223.705c6.829,4.603,25.091,13.479,28.178,15.676c4.359,3.077,18.432,10.027,7.592,28.758
	c-10.852,18.82-20.855,32.631-27.456,42.547H222.5c22.263-18.256,56.556-33.374,71.365-44.052
	c14.836-10.688,15.634-18.748,8.522-27.663c-6.538-8.146-12.394-10.435-14.775-15.335c-4.282-8.739,11.108-12.43,16.416-12.362
	c0.595,0,6.472,0,6.472,0S296.933,219.068,303.768,223.705z"/>
<g>
	<path fill="#FFFFFF" stroke="#FFFFFF" stroke-width="3" stroke-miterlimit="10" d="M341.242,197.893
		c6.764,0,12.226,5.236,12.226,11.662c0,6.425-5.462,11.632-12.226,11.632c-6.703,0-12.172-5.207-12.172-11.632
		C329.07,203.129,334.539,197.893,341.242,197.893z"/>
	
		<line fill="none" stroke="#FFFFFF" stroke-width="3" stroke-miterlimit="10" x1="341.242" y1="189.315" x2="341.242" y2="195.894"/>
	
		<line fill="none" stroke="#FFFFFF" stroke-width="3" stroke-miterlimit="10" x1="326.225" y1="195.223" x2="331.125" y2="199.877"/>
	
		<line fill="none" stroke="#FFFFFF" stroke-width="3" stroke-miterlimit="10" x1="320.049" y1="209.555" x2="326.908" y2="209.555"/>
	
		<line fill="none" stroke="#FFFFFF" stroke-width="3" stroke-miterlimit="10" x1="326.225" y1="223.853" x2="331.125" y2="219.205"/>
	
		<line fill="none" stroke="#FFFFFF" stroke-width="3" stroke-miterlimit="10" x1="341.242" y1="229.801" x2="341.242" y2="223.203"/>
	
		<line fill="none" stroke="#FFFFFF" stroke-width="3" stroke-miterlimit="10" x1="356.281" y1="223.853" x2="351.379" y2="219.205"/>
	<line fill="none" stroke="#FFFFFF" stroke-width="3" stroke-miterlimit="10" x1="362.5" y1="209.555" x2="355.594" y2="209.555"/>
	
		<line fill="none" stroke="#FFFFFF" stroke-width="3" stroke-miterlimit="10" x1="356.281" y1="195.222" x2="351.379" y2="199.876"/>
</g>
<title>Layer 1</title>
<path id="svg_3" fill="#FFFFFF" d="M348.875,265.491c5.625,0,10.252,4.539,10.252,10.222c0,5.664-4.627,10.221-10.252,10.221
	c-5.699,0-10.255-4.557-10.255-10.221C338.62,270.03,343.176,265.491,348.875,265.491z"/>
<line id="svg_5" fill="none" stroke="#FFFFFF" stroke-width="6" stroke-miterlimit="10" x1="348.628" y1="305.068" x2="348.628" y2="286.44"/>
<path id="svg_11" fill="none" stroke="#1D1D1B" stroke-width="2" d="M353.021,272.104c1.185,0,2.057,1.481,2.057,3.284
	c0,1.867-0.872,3.342-2.057,3.342c-1.115,0-2.051-1.475-2.051-3.342C350.971,273.585,351.906,272.104,353.021,272.104z"/>
<path id="svg_14" fill="none" stroke="#1D1D1B" stroke-width="2" d="M347.414,272.104c1.173,0,2.051,1.481,2.051,3.284
	c0,1.867-0.878,3.342-2.051,3.342c-1.117,0-2.051-1.475-2.051-3.342C345.363,273.585,346.297,272.104,347.414,272.104z"/>
<line id="svg_15" fill="none" stroke="#1D1D1B" stroke-width="2" x1="342.583" y1="271.955" x2="342.583" y2="278.916"/>
</svg>
