<?xml version="1.0" encoding="utf-8"?>
<!-- Generator: Adobe Illustrator 16.0.3, SVG Export Plug-In . SVG Version: 6.00 Build 0)  -->
<!DOCTYPE svg PUBLIC "-//W3C//DTD SVG 1.1//EN" "http://www.w3.org/Graphics/SVG/1.1/DTD/svg11.dtd">
<svg version="1.1" id="Layer_1" xmlns="http://www.w3.org/2000/svg" xmlns:xlink="http://www.w3.org/1999/xlink" x="0px" y="0px"
	 width="150px" height="175px" viewBox="181 168.5 150 175" enable-background="new 181 168.5 150 175" xml:space="preserve">
<path fill="#FFFFFF" d="M314.861,244.344h-47.176v-47.18c0-6.163-5.216-11.164-11.686-11.164c-6.461,0-11.656,5.001-11.656,11.164
	v47.18h-47.18c-6.163,0-11.164,5.195-11.164,11.656c0,6.47,5.001,11.686,11.164,11.686h47.18v47.176
	c0,6.146,5.195,11.139,11.656,11.139c6.47,0,11.686-4.992,11.686-11.139v-47.176h47.176c6.146,0,11.139-5.216,11.139-11.686
	C326,249.539,321.008,244.344,314.861,244.344z"/>
</svg>
